<svg xmlns="http://www.w3.org/2000/svg" xmlns:xlink="http://www.w3.org/1999/xlink" viewBox="0 0 567.73 283.08"><defs><style>.cls-1{fill:url(#linear-gradient);}.cls-2{fill:url(#linear-gradient-2);}.cls-3{fill:url(#linear-gradient-3);}.cls-4{fill:url(#linear-gradient-4);}.cls-5{fill:url(#linear-gradient-5);}.cls-6{fill:url(#linear-gradient-6);}.cls-7{fill:url(#linear-gradient-7);}.cls-8{fill:url(#linear-gradient-8);}.cls-9{fill:url(#linear-gradient-9);}.cls-10{fill:url(#linear-gradient-10);}.cls-11{fill:url(#linear-gradient-11);}.cls-12{fill:url(#linear-gradient-12);}.cls-13{fill:url(#linear-gradient-13);}.cls-14{fill:url(#linear-gradient-14);}.cls-15{fill:url(#linear-gradient-15);}.cls-16{fill:url(#linear-gradient-16);}.cls-17{fill:url(#linear-gradient-17);}.cls-18{fill:url(#linear-gradient-18);}.cls-19{fill:url(#linear-gradient-19);}.cls-20{fill:url(#linear-gradient-20);}.cls-21{fill:url(#linear-gradient-21);}.cls-22{fill:url(#linear-gradient-22);}.cls-23{fill:url(#linear-gradient-23);}.cls-24{fill:url(#linear-gradient-24);}.cls-25{fill:url(#linear-gradient-25);}.cls-26{fill:url(#linear-gradient-26);}.cls-27{fill:url(#linear-gradient-27);}.cls-28{fill:url(#linear-gradient-28);}.cls-29{fill:url(#linear-gradient-29);}.cls-30{fill:url(#linear-gradient-30);}.cls-31{fill:url(#linear-gradient-31);}.cls-32{fill:url(#linear-gradient-32);}.cls-33{fill:url(#linear-gradient-33);}</style><linearGradient id="linear-gradient" x1="569.13" y1="75.1" x2="20.38" y2="75.1" gradientUnits="userSpaceOnUse"><stop offset="0" stop-color="#28b7ff"/><stop offset="0.23" stop-color="#65d78b"/><stop offset="0.49" stop-color="#fcee21"/><stop offset="0.71" stop-color="#f7931e"/><stop offset="1" stop-color="#f61561"/></linearGradient><linearGradient id="linear-gradient-2" x1="569.13" y1="82.2" x2="20.38" y2="82.2" xlink:href="#linear-gradient"/><linearGradient id="linear-gradient-3" x1="569.13" y1="89.29" x2="20.38" y2="89.29" xlink:href="#linear-gradient"/><linearGradient id="linear-gradient-4" x1="569.13" y1="96.39" x2="20.38" y2="96.39" xlink:href="#linear-gradient"/><linearGradient id="linear-gradient-5" x1="569.13" y1="103.48" x2="20.38" y2="103.48" xlink:href="#linear-gradient"/><linearGradient id="linear-gradient-6" x1="569.13" y1="110.58" x2="20.38" y2="110.58" xlink:href="#linear-gradient"/><linearGradient id="linear-gradient-7" x1="569.13" y1="117.68" x2="20.38" y2="117.68" xlink:href="#linear-gradient"/><linearGradient id="linear-gradient-8" x1="569.13" y1="124.77" x2="20.38" y2="124.77" xlink:href="#linear-gradient"/><linearGradient id="linear-gradient-9" x1="569.13" y1="131.87" x2="20.38" y2="131.87" xlink:href="#linear-gradient"/><linearGradient id="linear-gradient-10" x1="569.13" y1="139.07" x2="20.38" y2="139.07" xlink:href="#linear-gradient"/><linearGradient id="linear-gradient-11" x1="569.13" y1="146.1" x2="20.38" y2="146.1" xlink:href="#linear-gradient"/><linearGradient id="linear-gradient-12" x1="-78.52" y1="188.34" x2="652.17" y2="28.42" gradientUnits="userSpaceOnUse"><stop offset="0" stop-color="#d844ff"/><stop offset="1" stop-color="#28b7ff"/></linearGradient><linearGradient id="linear-gradient-13" x1="-77.21" y1="194.33" x2="653.48" y2="34.42" xlink:href="#linear-gradient-12"/><linearGradient id="linear-gradient-14" x1="-75.9" y1="200.32" x2="654.79" y2="40.4" xlink:href="#linear-gradient-12"/><linearGradient id="linear-gradient-15" x1="-74.59" y1="206.3" x2="656.1" y2="46.39" xlink:href="#linear-gradient-12"/><linearGradient id="linear-gradient-16" x1="-73.29" y1="212.27" x2="657.41" y2="52.36" xlink:href="#linear-gradient-12"/><linearGradient id="linear-gradient-17" x1="-71.98" y1="218.22" x2="658.71" y2="58.31" xlink:href="#linear-gradient-12"/><linearGradient id="linear-gradient-18" x1="-70.79" y1="223.67" x2="659.9" y2="63.75" xlink:href="#linear-gradient-12"/><linearGradient id="linear-gradient-19" x1="-70.56" y1="224.72" x2="660.13" y2="64.8" xlink:href="#linear-gradient-12"/><linearGradient id="linear-gradient-20" x1="-70.38" y1="225.53" x2="660.31" y2="65.62" xlink:href="#linear-gradient-12"/><linearGradient id="linear-gradient-21" x1="-70.38" y1="225.57" x2="660.32" y2="65.66" xlink:href="#linear-gradient-12"/><linearGradient id="linear-gradient-22" x1="-70.37" y1="225.58" x2="660.32" y2="65.66" xlink:href="#linear-gradient-12"/><linearGradient id="linear-gradient-23" x1="-70.37" y1="225.58" x2="660.32" y2="65.67" xlink:href="#linear-gradient-12"/><linearGradient id="linear-gradient-24" x1="-70.37" y1="225.59" x2="660.32" y2="65.67" xlink:href="#linear-gradient-12"/><linearGradient id="linear-gradient-25" x1="-70.13" y1="226.67" x2="660.56" y2="66.76" xlink:href="#linear-gradient-12"/><linearGradient id="linear-gradient-26" x1="-69.73" y1="228.54" x2="660.97" y2="68.62" xlink:href="#linear-gradient-12"/><linearGradient id="linear-gradient-27" x1="-69.28" y1="230.56" x2="661.41" y2="70.65" xlink:href="#linear-gradient-12"/><linearGradient id="linear-gradient-28" x1="-68.82" y1="232.68" x2="661.87" y2="72.76" xlink:href="#linear-gradient-12"/><linearGradient id="linear-gradient-29" x1="-67.6" y1="238.27" x2="663.1" y2="78.35" xlink:href="#linear-gradient-12"/><linearGradient id="linear-gradient-30" x1="-66.29" y1="244.24" x2="664.4" y2="84.32" xlink:href="#linear-gradient-12"/><linearGradient id="linear-gradient-31" x1="-64.98" y1="250.22" x2="665.71" y2="90.3" xlink:href="#linear-gradient-12"/><linearGradient id="linear-gradient-32" x1="-63.67" y1="256.21" x2="667.03" y2="96.29" xlink:href="#linear-gradient-12"/><linearGradient id="linear-gradient-33" x1="-62.36" y1="262.2" x2="668.33" y2="102.29" xlink:href="#linear-gradient-12"/></defs><g id="Layer_2" data-name="Layer 2"><g id="_Layer_" data-name="&lt;Layer&gt;"><path class="cls-1" d="M527.25,150.2c-25.87,0-26-67-50.87-67s-25,67-50.87,67c-26,0-26.11-149-50.82-149-24.88,0-24.71,149-50.91,149-25.83,0-25.9-47-50.87-47s-25.06,47-50.87,47-26-67-50.86-67-25,67-50.85,67-25.82-33.49-50.87-33.49S44.36,150.2,18.59,150.2V149c25,0,25.14-33.49,50.87-33.49S95.3,149,120.33,149c24.79,0,25-67,50.85-67s26,67,50.86,67,25.05-47,50.87-47,25.88,47,50.87,47S348.48,0,374.69,0c26,0,26.12,149,50.82,149s25-67,50.87-67,26,67,50.87,67Z"/><path class="cls-2" d="M18.59,150.21V149c25.07,0,25.14-30.31,50.87-30.31S95.27,149,120.33,149c24.85,0,25-60.61,50.86-60.61S197.19,149,222,149s25.11-42.5,50.87-42.5S298.76,149,323.78,149c24.72,0,24.87-134.81,50.92-134.81S400.73,149,425.51,149s25-60.62,50.87-60.62,26,60.61,50.87,60.61v1.2c-25.84,0-26-60.61-50.87-60.61s-25,60.62-50.87,60.62c-26.08,0-26.05-134.81-50.81-134.81S349.82,150.2,323.78,150.2c-25.82,0-25.86-42.5-50.87-42.5S247.8,150.2,222,150.2s-26-60.61-50.85-60.61-25,60.61-50.86,60.61-25.81-30.3-50.87-30.3S44.31,150.21,18.59,150.21Z"/><path class="cls-3" d="M18.59,150.21V149c25.13,0,25.15-27.12,50.87-27.12S95.19,149,120.33,149c24.93,0,25-54.24,50.86-54.24S197.1,149,222,149s25.12-38,50.87-38,25.82,38,50.87,38c24.76,0,24.88-120.62,50.92-120.62S400.76,149,425.51,149c25,0,25-54.23,50.87-54.23S502.29,149,527.25,149v1.2c-25.87,0-25.91-54.23-50.87-54.23s-25,54.23-50.87,54.23S399.45,29.57,374.7,29.57,349.82,150.2,323.78,150.2c-25.79,0-25.82-38-50.87-38s-25.12,38-50.87,38S196.13,96,171.19,96s-25,54.24-50.86,54.24S94.6,123.09,69.46,123.09,44.32,150.21,18.59,150.21Z"/><path class="cls-4" d="M18.59,150.21V149c25.15,0,25.18-23.93,50.87-23.93S95.15,149,120.33,149c25,0,25-47.86,50.86-47.86S197.12,149,222,149s25.14-33.55,50.87-33.55S298.75,149,323.78,149c24.77,0,24.91-106.43,50.93-106.43S400.68,149,425.51,149s25.05-47.86,50.88-47.86S502.32,149,527.25,149v1.2c-25.78,0-25.93-47.85-50.86-47.85s-25.06,47.85-50.88,47.86c-26.15,0-25.91-106.43-50.8-106.43s-24.92,106.43-50.93,106.43c-25.72,0-25.84-33.54-50.87-33.54S247.77,150.2,222,150.2s-25.92-47.85-50.85-47.85-25,47.86-50.86,47.86-25.69-23.93-50.87-23.92S44.3,150.21,18.59,150.21Z"/><path class="cls-5" d="M18.59,150.22V149c25.22,0,25.19-20.74,50.88-20.74S95.09,149,120.33,149c25,0,25.12-41.47,50.87-41.48S197.09,149,222,149c25.11,0,25.14-29.08,50.87-29.08S298.68,149,323.78,149c24.76,0,25-92.24,50.94-92.24s26,92.23,50.79,92.23c25,0,25.1-41.47,50.88-41.47S502.24,149,527.25,149v1.2c-25.8,0-25.85-41.47-50.86-41.46s-25.08,41.47-50.88,41.47S399.48,58,374.72,58s-25,92.24-50.94,92.24c-25.72,0-25.76-29.07-50.87-29.07S247.74,150.2,222,150.2s-25.89-41.47-50.84-41.47-25.09,41.48-50.87,41.48-25.67-20.73-50.86-20.73h0c-12.53,0-18.63,5-25.1,10.25S31.5,150.22,18.59,150.22Z"/><path class="cls-6" d="M18.59,150.22V149c25.24,0,25.24-17.55,50.88-17.55h0c25.65,0,25.62,17.54,50.85,17.54h0c25,0,25.13-35.09,50.87-35.09S197,149,222,149s25.17-24.61,50.88-24.61S298.6,149,323.78,149c24.85,0,25-78.05,50.94-78.05s26,78,50.79,78c25,0,25.13-35.1,50.88-35.1S502.21,149,527.25,149v1.2c-25.75,0-25.81-35.09-50.86-35.09s-25.13,35.1-50.88,35.1c-25.91,0-26-78.05-50.79-78.05s-25,78.06-50.94,78.06c-25.73,0-25.68-24.6-50.86-24.6S247.74,150.2,222,150.2s-25.8-35.09-50.84-35.09-25.13,35.1-50.87,35.1h0c-25.64,0-25.61-17.54-50.84-17.54h0C44.24,132.68,44.24,150.22,18.59,150.22Z"/><path class="cls-7" d="M18.59,150.23V149c25.09,0,25.4-14.36,50.88-14.36,3.3.62,9.9-1.67,25.69,7.24,6.19,3.49,12.59,7.11,25.16,7.11h0c25,0,25.19-28.72,50.87-28.72h0C196.9,120.3,197,149,222,149h0c25.26,0,25.15-20.13,50.88-20.14h0c25.7,0,25.63,20.13,50.85,20.13h0c24.84,0,25.09-63.87,51-63.87S400.66,149,425.51,149c25.1,0,25.16-28.71,50.89-28.72S502.15,149,527.25,149h0v1.2h0c-25.73,0-25.73-28.71-50.85-28.71s-25.19,28.72-50.89,28.72c-25.87,0-25.92-63.85-50.78-63.85s-25.09,63.86-51,63.87h0c-25.73,0-25.58-20.13-50.85-20.13h0c-25.26,0-25.15,20.14-50.88,20.14h0c-25.7,0-25.74-28.7-50.83-28.7h0c-25.06,0-25.18,28.71-50.87,28.71h0c-25.51,0-25.7-14.34-50.84-14.34-3.25.62-9.71-1.63-25.19,7.11C38,146.54,31.45,150.23,18.59,150.23Z"/><path class="cls-8" d="M18.59,150.23V149c25,0,25.51-11.17,50.88-11.17,3.16.47,9.9-1.29,25.64,5.62,6.2,2.72,12.61,5.54,25.21,5.54h0c25.19,0,25.18-22.34,50.88-22.34h0C196.9,126.68,196.86,149,222,149h0c25.28,0,25.22-15.66,50.88-15.66h0c25.63,0,25.58,15.65,50.84,15.65h0c25,0,25.11-49.68,51-49.68h0c25.88,0,25.76,49.66,50.76,49.66h0c25.19,0,25.19-22.34,50.89-22.34h0c25.69,0,25.65,22.32,50.84,22.32h0v1.2h0c-25.7,0-25.65-22.32-50.84-22.32h0c-25.2,0-25.19,22.33-50.89,22.34h0c-25.87,0-25.76-49.66-50.76-49.66h0c-25,0-25.12,49.67-51,49.67-3.17-.65-9.93,1.82-25.71-7.9-6.47-4-12.58-7.74-25.14-7.74h0c-25.28,0-25.22,15.66-50.88,15.66h0c-25.69,0-25.64-22.32-50.82-22.32h0c-25.19,0-25.19,22.33-50.88,22.34h0c-25.33,0-25.77-11.16-50.84-11.16-3.28.49-9.7-1.28-25.23,5.54C37.94,147.37,31.42,150.23,18.59,150.23Z"/><path class="cls-9" d="M18.59,150.24V149c25.11,0,25.53-8,50.88-8,3.38.36,9.83-.93,25.59,4a72.76,72.76,0,0,0,25.24,4h0c25.27,0,25.22-16,50.88-16h0c25.63,0,25.57,15.94,50.81,15.94,3.28-.49,9.71,1.28,25.24-5.55,6.31-2.77,12.83-5.64,25.65-5.64h0c25.32,0,25.74,11.17,50.82,11.17h0c25,0,25.24-35.48,51-35.48h0c25.71,0,25.75,35.46,50.75,35.46h0c25.28,0,25.22-16,50.89-16h0C502.05,133,502,149,527.24,149h0v1.2h0c-25.63,0-25.57-16-50.82-16h0c-25.28,0-25.22,16-50.89,16h0c-25.7,0-25.75-35.46-50.75-35.46h0c-25,0-25.24,35.48-51,35.48-3.37-.5-9.87,1.31-25.65-5.63-6.19-2.73-12.59-5.54-25.19-5.54h0c-25,0-25.51,11.19-50.88,11.19h0c-25.62,0-25.56-15.94-50.81-15.94h0c-25.27,0-25.22,16-50.88,16-3.38-.36-9.83.93-25.59-4a73,73,0,0,0-25.24-4c-3.29.35-9.75-.91-25.31,4A73.69,73.69,0,0,1,18.59,150.24Z"/><path class="cls-10" d="M18.59,150.24V149c25.29,0,25.46-4.79,50.88-4.79A120.78,120.78,0,0,1,95,146.64c15.28,2.88,25.51,2.38,25.33,2.38,25.16,0,25.46-9.57,50.88-9.58h0c25.36,0,25.66,9.56,50.79,9.56h0c25.15,0,25.53-6.71,50.89-6.72h0c25.34,0,25.62,6.7,50.79,6.7h0c25.24,0,25.25-21.29,51-21.3h0c25.67,0,25.56,21.28,50.74,21.28,3.27-.42,9.72,1.09,25.27-4.76a63,63,0,0,1,25.64-4.82h0c25.36,0,25.65,9.56,50.8,9.56h0v1.2h0c-25.37,0-25.66-9.56-50.8-9.56h0c-25.18,0-25.47,9.58-50.9,9.58h0c-25.67,0-25.55-21.28-50.74-21.28h0c-31.6,0-22.53,32.18-76.53,17.93-15.16-4-25.47-3.35-25.29-3.33-25.16,0-25.53,6.72-50.89,6.72-3.34-.42-9.85,1.12-25.6-4.81a61.73,61.73,0,0,0-25.21-4.75h0c-25.16,0-25.47,9.58-50.88,9.58h0c-25.33,0-25.56-4.77-50.77-4.77S44,150.24,18.59,150.24Z"/><path class="cls-11" d="M18.59,150.25v-1.2c28.43,0,39.84-3.09,76.35-.82,55.21,3.46,58.47-6.24,101.76-.81,32.33,4.05,48.79-.67,76.32-.67,25.21,0,25.51,2.23,50.66,2.23,25.4,0,25.58-7.1,51.08-7.11,3.32.31,9.87-.82,25.52,3.56,28.35,7.94,46.92.32,76.2.32,25.32,0,25.45,3.18,50.77,3.18v1.2c-27.8,0-39.58-6.17-76.23-1.58-48.8,6.13-45.91-5.48-76.22-5.48h0c-25.2,0-25.59,7.1-51,7.11-27.47,0-39.91-4.3-76.25-1.1C205.7,152.76,200,147,171.29,147c-30.84,0-28.7,5.39-76.42,2.41C58.48,147.15,46.05,150.24,18.59,150.25Z"/><rect y="149.51" width="567.73" height="1.88"/><path class="cls-12" d="M367.42,167.37c-48.83,0-49.14-149-97.44-149s-48.77,149-97.61,149-49.06-47-97.54-47c-29,0-40.94,16.95-55.87,30.26l-.36-.41c15.1-13.46,27-30.39,56.23-30.39,24.49,0,36.93,12,49,23.56s24.31,23.41,48.59,23.41c48.31,0,48.77-149,97.61-149s49.14,149,97.44,149,48.84-67,97.54-67c33,0,44,30.77,62.28,50.43l-.4.37C508.51,131,497.62,100.38,465,100.38,416.62,100.38,416.12,167.37,367.42,167.37Z"/><path class="cls-13" d="M367.42,165.79C318.55,165.79,318.35,31,270,31s-48.79,134.81-97.61,134.81-49.08-42.5-97.54-42.5c-29,0-40.91,15.3-55.88,27.37l-.34-.42c15.12-12.2,27-27.49,56.22-27.49,24.48,0,36.92,10.83,48.94,21.31s24.31,21.18,48.6,21.18c48.31,0,48.79-134.81,97.61-134.81s49.08,134.81,97.44,134.81,48.82-60.61,97.54-60.61c33,0,44,27.84,62.27,45.63l-.38.39c-18.31-17.8-29.23-45.48-61.89-45.48C416.58,105.17,416.14,165.79,367.42,165.79Z"/><path class="cls-14" d="M367.42,164.2c-48.84,0-49.08-120.62-97.44-120.62S221.18,164.2,172.37,164.2s-49.11-38-97.54-38c-28.81,0-40.52,13.41-55.89,24.49l-.32-.44c15.08-10.88,27-24.6,56.21-24.6,24.48,0,36.91,9.7,48.93,19.07s24.32,19,48.61,19C220.69,163.66,221.17,43,270,43s49.09,120.62,97.44,120.62,48.84-54.23,97.54-54.23c33,0,43.93,24.88,62.26,40.82l-.36.41C508.54,134.72,497.63,110,465,110c-24.26,0-36.62,13.74-48.57,27S391.93,164.2,367.42,164.2Z"/><path class="cls-15" d="M367.42,162.62c-48.82,0-49.08-106.43-97.44-106.43S221.2,162.62,172.37,162.62s-49.09-33.55-97.54-33.55c-28.85,0-40.62,11.87-55.9,21.61l-.3-.46c15.19-9.66,27-21.7,56.2-21.7,24.47,0,36.9,8.56,48.92,16.83s24.32,16.72,48.62,16.72c48.36,0,48.78-106.43,97.61-106.43s49.08,106.43,97.44,106.43,48.76-47.85,97.54-47.85c33,0,44,22,62.25,36l-.33.43c-18.31-14-29.23-35.91-61.92-35.91-24.28,0-36.63,12.13-48.58,23.85S391.92,162.62,367.42,162.62Z"/><path class="cls-16" d="M367.42,161c-48.81,0-49.06-92.24-97.44-92.24S221.13,161,172.37,161,123.25,132,74.83,132c-28.74,0-40.36,10.15-55.92,18.74l-.26-.48c15.14-8.35,27-18.8,56.18-18.8,24.46,0,36.88,7.41,48.91,14.58s24.32,14.5,48.63,14.5c48.31,0,48.85-92.24,97.61-92.24s49.06,92.24,97.44,92.24S416.24,119,465,119c32.94,0,43.94,19,62.23,31.21l-.3.45c-18.34-12.2-29.23-31.12-61.93-31.12C416.5,119.56,416.14,161,367.42,161Z"/><path class="cls-17" d="M367.42,159.45c-48.79,0-49.05-78-97.44-78s-48.84,78-97.61,78-49.07-24.61-97.54-24.61c-28.3,0-39.57,8.21-55.94,15.86l-.23-.49c15.13-7.07,27.06-15.91,56.17-15.91,24.45,0,36.87,6.27,48.89,12.33S148,158.9,172.37,158.9c48.37,0,48.84-78.05,97.61-78.05s49,78.05,97.44,78.05,48.86-35.09,97.54-35.09c33,0,43.91,16.1,62.22,26.4l-.27.48c-18.33-10.32-29.23-26.34-61.95-26.34C416.51,124.35,416.1,159.45,367.42,159.45Z"/><path class="cls-18" d="M367.42,157.86C318.65,157.86,318.4,94,270,94s-48.9,63.86-97.61,63.86-49-20.13-97.54-20.13c-28.24,0-39.46,6.66-55.95,13l-.2-.51c15.21-5.81,27-13,56.15-13,24.44,0,36.86,5.12,48.87,10.08s24.34,10,48.67,10c48.35,0,48.9-63.86,97.61-63.86s49,63.86,97.44,63.86,48.89-28.71,97.54-28.71c32.92,0,43.91,13.18,62.2,21.6l-.23.49c-18.39-8.47-29.19-21.55-62-21.55C416.51,129.15,416.07,157.86,367.42,157.86Z"/><path class="cls-19" d="M367.42,156.27c-48.71,0-49-49.66-97.44-49.66s-48.84,49.66-97.61,49.66-49-15.65-97.54-15.65c-28.87,0-40.62,5.53-56,10.09l-.16-.52c15.3-4.54,27-10.12,56.13-10.12,24.42,0,36.84,4,48.85,7.84s24.34,7.82,48.69,7.82c48.47,0,48.84-49.67,97.61-49.67s49,49.67,97.44,49.67,49-22.33,97.54-22.33c32.9,0,43.89,10.25,62.18,16.79l-.19.52c-18.39-6.59-29.25-16.77-62-16.77C416.53,133.94,416,156.27,367.42,156.27Z"/><path class="cls-20" d="M367.42,154.69c-48.62,0-49-35.48-97.44-35.48s-49,35.48-97.61,35.48-48.94-11.18-97.54-11.18c-28.95,0-40.77,4-56,7.21l-.12-.53C34.11,146.92,45.79,143,74.83,143c24.41,0,36.82,2.85,48.83,5.6C226.5,172.14,209,118.67,270,118.67c48.63,0,49,35.48,97.44,35.48s48.91-16,97.54-16c32.88,0,43.86,7.31,62.15,12l-.13.52c-18.35-4.69-29.25-12-62-12C416.44,138.74,416.05,154.69,367.42,154.69Z"/><path class="cls-21" d="M367.42,153.1c-48.6,0-49-21.28-97.44-21.28s-49,21.28-97.61,21.28c-60.73,0-65.57-13.58-153.56-2.38l-.06-.54c16-2,27.14-4.33,56.08-4.33a308.43,308.43,0,0,1,48.8,3.36c103.09,14.18,85.08-17.94,146.35-17.94,48.61,0,49,21.29,97.44,21.29S416.35,143,465,143c32.86,0,43.82,4.38,62.13,7.19l-.09.54c-15.06-2.31-53.7-13.6-110.76-2.41C404.24,150.67,391.83,153.1,367.42,153.1Z"/><path class="cls-22" d="M270,144.42c-48.55,0-49,7.1-97.61,7.1-60.23,0-66.15-4.51-153.58-.8l0-.54c112.47-4.78,141,6.17,202.37-2.75a331.53,331.53,0,0,1,97.6,0c68.2,9.94,101-4.19,195.06,1.95,4.18.27,8.49.55,13.26.8l0,.54c-20.06-1-55.35-4.43-110.82-.8C321.67,156.1,329.73,144.42,270,144.42Z"/><path class="cls-23" d="M270,157c-48.65,0-49-7.1-97.61-7.1-60.12,0-66,4.52-153.6.79l0-.54c112.6,4.79,141-6.17,202.42,2.76A292.94,292.94,0,0,0,270,156.48c60.1,0,51.71-11.67,146.23-5.5,54.79,3.59,90.57.23,110.82-.8l0,.54c-20.08,1-55.24,4.44-110.89.81C325,145.56,327.37,157,270,157Z"/><path class="cls-24" d="M270,169.63c-48.6,0-49.15-21.28-97.61-21.28-60.5,0-65.69,13.58-153.63,2.37l.07-.54c15.81,2,27.07,4.33,56,4.33a308,308,0,0,0,48.73-3.35C226.72,137,208.94,169.09,270,169.09c48.46,0,48.83-21.29,97.44-21.29,24.41,0,36.82,2.44,48.82,4.79a246.34,246.34,0,0,0,97.42,0c4.21-.82,8.55-1.68,13.35-2.41l.08.53c-18.3,2.81-29.25,7.21-62.13,7.21-48.67,0-48.94-9.57-97.54-9.57S318.6,169.63,270,169.63Z"/><path class="cls-25" d="M270,182.24c-48.62,0-49.22-35.48-97.61-35.48-48.55,0-48.92,11.19-97.54,11.19C46,158,34.24,154,18.72,150.72l.11-.53c15.56,3.29,27,7.21,56,7.21,24.35,0,36.73-2.84,48.71-5.58C226.74,128.15,209,181.7,270,181.7c48.42,0,48.79-35.48,97.44-35.48s49,15.95,97.54,15.95c32.77,0,43.68-7.29,62-12l.14.53c-18.29,4.67-29.27,12-62.16,12-48.64,0-49-16-97.54-16-24.29,0-36.63,9-48.56,17.69S294.45,182.24,270,182.24Z"/><path class="cls-26" d="M270,194.84c-48.69,0-49.22-49.66-97.61-49.66s-48.91,15.65-97.54,15.65c-29,0-40.75-5.55-56.13-10.12l.15-.52c15.61,4.64,27.07,10.1,56,10.1,48.52,0,48.9-15.66,97.54-15.66,24.49,0,36.95,12.67,49,24.92S245.71,194.3,270,194.3c48.43,0,48.71-49.67,97.44-49.67S416.41,167,465,167c32.79,0,43.64-10.2,62-16.77l.18.51c-18.51,6.63-29.23,16.81-62.18,16.81-48.67,0-49-22.33-97.54-22.33-24.27,0-36.6,12.58-48.52,24.75S294.48,194.84,270,194.84Z"/><path class="cls-27" d="M270,207.45c-48.76,0-49.2-63.86-97.61-63.86s-48.85,20.13-97.54,20.13c-28.14,0-39-6.49-56.15-13l.19-.5c15.6,6,27.07,13,56,13,48.55,0,48.84-20.13,97.54-20.13,24.51,0,37,16.28,49,32s24.35,31.83,48.59,31.83c48.4,0,48.69-63.86,97.44-63.86s49.12,28.71,97.54,28.71c32.74,0,43.65-13.13,62-21.56l.22.49c-18.3,8.43-29.27,21.61-62.2,21.61-48.61,0-49.12-28.71-97.54-28.71-24.25,0-36.58,16.18-48.5,31.82S294.5,207.45,270,207.45Z"/><path class="cls-28" d="M270,220.05c-48.8,0-49.21-78.05-97.61-78.05s-48.87,24.61-97.54,24.61c-28.45,0-39.72-8.24-56.17-15.91l.23-.5c15.15,7.08,27,15.87,55.94,15.87,48.5,0,48.87-24.61,97.54-24.61,24.53,0,37,19.9,49,39.15s24.34,38.9,48.57,38.9c48.38,0,48.67-78,97.44-78S416.5,176.55,465,176.55c32.73,0,43.65-16,62-26.34l.26.47C508.88,161,497.9,177.1,465,177.1c-48.69,0-49.08-35.1-97.54-35.1-24.23,0-36.56,19.78-48.49,38.9S294.52,220.05,270,220.05Z"/><path class="cls-29" d="M270,232.66c-48.77,0-49.27-92.24-97.61-92.24S123.48,169.5,74.83,169.5c-28.91,0-40.59-10.21-56.18-18.81l.26-.48C34,158.56,45.77,169,74.83,169c48.45,0,48.88-29.07,97.54-29.07,24.54,0,37,23.52,49,46.26s24.36,46,48.57,46c48.42,0,48.58-92.24,97.44-92.24s49.07,41.47,97.54,41.47c24.28,0,36.64-10.51,48.59-20.67a141.73,141.73,0,0,1,13.35-10.46l.3.45c-18.31,12.17-29.29,31.22-62.24,31.22-48.74,0-49.07-41.47-97.54-41.47-24.22,0-36.55,23.37-48.48,46C306.94,209.14,294.53,232.66,270,232.66Z"/><path class="cls-30" d="M270,245.26c-48.82,0-49.26-106.43-97.61-106.43s-48.82,33.55-97.54,33.55c-29,0-40.85-11.93-56.2-21.7l.29-.46C34,159.81,45.8,171.84,74.83,171.84c48.49,0,48.81-33.55,97.54-33.55,24.55,0,37,27.13,49,53.37,12,26.09,24.36,53.06,48.56,53.06,48.38,0,48.6-106.43,97.44-106.43s49.12,47.85,97.54,47.85c24.27,0,36.63-12.12,48.58-23.85a146.84,146.84,0,0,1,13.35-12.06l.33.43c-18.3,14-29.29,36-62.26,36-48.71,0-49.12-47.86-97.54-47.86-24.21,0-36.54,27-48.47,53.06C307,218.13,294.54,245.26,270,245.26Z"/><path class="cls-31" d="M270,257.87c-48.85,0-49.25-120.62-97.61-120.62s-48.86,38-97.54,38c-28.12,0-39-12.21-56.21-24.6l.31-.44c15,10.78,26.88,24.5,55.9,24.5,48.42,0,48.85-38,97.54-38,48.85,0,49.25,120.62,97.61,120.62s48.63-120.62,97.44-120.62,49.09,54.23,97.54,54.23c24.26,0,36.62-13.74,48.57-27a156.33,156.33,0,0,1,13.34-13.67l.36.41c-18.31,15.91-29.29,40.83-62.27,40.83-48.77,0-49.09-54.23-97.54-54.23-24.2,0-36.54,30.57-48.47,60.14C307,227.12,294.55,257.87,270,257.87Z"/><path class="cls-32" d="M270,270.47c-48.87,0-49.25-134.81-97.61-134.81s-48.81,42.5-97.54,42.5c-29.21,0-41.17-15.36-56.23-27.5l.35-.42c15,12.09,26.9,27.38,55.88,27.38,48.46,0,48.8-42.5,97.54-42.5S221.62,269.93,270,269.93s48.61-134.81,97.44-134.81,49.14,60.61,97.54,60.61c24.25,0,36.61-15.35,48.56-30.2a167.35,167.35,0,0,1,13.34-15.28l.38.38C508.92,168.44,498,196.28,465,196.28c-48.74,0-49.14-60.62-97.54-60.62S318.81,270.47,270,270.47Z"/><path class="cls-33" d="M270,283.08c-48.82,0-49.32-149-97.61-149s-48.85,47-97.54,47c-28.93,0-40.61-16.47-56.24-30.4l.37-.4c15,13.35,26.87,30.26,55.87,30.26,48.4,0,48.84-47,97.54-47s49.32,149,97.61,149,48.59-149,97.44-149c48.69,0,49.2,67,97.54,67,32.67,0,43.6-30.63,61.89-50.28l.4.37C509,170.26,498,201.07,465,201.07c-48.7,0-49.2-67-97.54-67S318.83,283.08,270,283.08Z"/></g></g></svg>